# xmcd CD database file
#
# Track frame offsets:
#	150
#	50758
#	54236
#	100965
#	103715
#	131895
#	133338
#	160753
#	194923
#
# Disc length: 3526 seconds
#
# Revision: 0
# Processed by: cddbd v1.5.2PL0 Copyright (c) Steve Scherf et al.
# Submitted via: CDex 1.50
#
DISCID=8a0dc409
DTITLE=Wierbos - Van Kemenade - Kuiper - Live at the Concertgebouw
DYEAR=1996
DGENRE=Jazz
TTITLE0=Just for the Occasion
TTITLE1=Announcement
TTITLE2=Le meme groove (for Zou Diarra)
TTITLE3=Announcement
TTITLE4=L.T.
TTITLE5=Announcement
TTITLE6=Kirk (for Roland Kirk)
TTITLE7=Wim (for Wim Overgaauw)
TTITLE8=Sogomougou
EXTD=YEAR: 1996
EXTT0=
EXTT1=
EXTT2=
EXTT3=
EXTT4=
EXTT5=
EXTT6=
EXTT7=
EXTT8=
PLAYORDER=
